<?xml version="1.0" encoding="UTF-8" ?>
<!DOCTYPE svg PUBLIC "-//W3C//DTD SVG 1.1//EN" "http://www.w3.org/Graphics/SVG/1.1/DTD/svg11.dtd">
<svg width="111pt" height="30pt" viewBox="0 0 111 30" version="1.1" xmlns="http://www.w3.org/2000/svg">
<g id="#6c757dff">
<path fill="#6c757d" stroke="#6c757d" stroke-width="0.09375" opacity="1.00" d=" M 33.35 1.59 C 39.46 0.04 47.35 1.33 50.60 7.34 C 54.21 14.37 52.64 25.52 44.41 28.49 C 38.24 30.45 29.84 29.84 26.06 23.87 C 21.41 16.40 23.70 3.63 33.35 1.59 M 35.35 8.34 C 31.79 10.82 32.02 16.07 33.25 19.74 C 34.57 23.88 41.47 23.96 42.89 19.85 C 43.83 17.01 43.96 13.78 42.97 10.94 C 41.93 7.95 37.96 6.81 35.35 8.34 Z" />
<path fill="#6c757d" stroke="#6c757d" stroke-width="0.09375" opacity="1.00" d=" M 52.78 12.11 C 53.29 6.74 57.72 2.04 63.09 1.34 C 66.99 0.79 71.17 0.74 74.90 2.16 C 77.77 3.36 79.20 6.26 80.29 8.97 C 77.55 9.48 74.81 9.96 72.06 10.38 C 70.62 8.21 68.05 6.43 65.37 7.50 C 62.14 8.35 61.07 12.02 61.19 14.98 C 61.12 17.77 61.62 21.33 64.48 22.63 C 67.21 23.96 70.16 22.68 72.75 21.67 C 72.76 21.01 72.77 19.69 72.77 19.03 C 70.93 19.01 69.08 19.00 67.24 18.98 C 67.24 17.07 67.25 15.16 67.25 13.25 C 71.67 13.24 76.08 13.25 80.50 13.26 C 80.50 17.19 80.48 21.11 80.53 25.04 C 74.51 29.50 66.18 30.93 59.22 27.97 C 53.42 25.20 51.78 17.96 52.78 12.11 Z" />
<path fill="#6c757d" stroke="#6c757d" stroke-width="0.09375" opacity="1.00" d=" M 93.23 1.10 C 98.90 0.42 105.77 2.32 108.15 8.04 C 110.89 14.70 109.98 24.22 103.01 27.91 C 96.75 30.64 87.89 30.24 83.60 24.28 C 80.43 19.68 80.33 13.38 82.39 8.31 C 84.17 3.97 88.68 1.41 93.23 1.10 M 92.41 8.44 C 89.19 10.72 89.46 15.38 90.12 18.82 C 90.77 22.32 95.14 24.01 98.09 22.17 C 100.35 21.09 100.66 18.26 100.80 16.03 C 100.87 13.43 100.73 10.28 98.44 8.58 C 96.65 7.53 94.22 7.34 92.41 8.44 Z" />
<path fill="#6c757d" stroke="#6c757d" stroke-width="0.09375" opacity="1.00" d=" M 2.50 1.50 C 5.42 1.50 8.34 1.50 11.26 1.50 C 11.24 8.33 11.26 15.16 11.25 22.00 C 15.66 21.99 20.08 22.01 24.50 22.00 C 24.50 24.33 24.50 26.67 24.50 29.00 C 17.17 29.00 9.83 29.00 2.50 29.00 C 2.50 19.83 2.50 10.67 2.50 1.50 Z" />
</g>
</svg>
